<?xml version="1.0" encoding="UTF-8" standalone="no"?>
<!-- Created with Inkscape (http://www.inkscape.org/) -->

<svg
   width="481.6687mm"
   height="39.623989mm"
   viewBox="0 0 481.6687 39.623989"
   version="1.1"
   id="svg5"
   xmlns="http://www.w3.org/2000/svg"
   xmlns:svg="http://www.w3.org/2000/svg">
  <defs
     id="defs2" />
  <g
     id="layer1"
     transform="translate(-111.76158,-291.53966)">
    <path
       style="fill:#000000;stroke-width:0.0846667"
       d="m 111.76158,311.35166 v -19.812 h 240.83434 240.83435 v 19.812 19.81199 H 352.59592 111.76158 Z m 480.63171,-0.0212 -0.0214,-18.81717 H 352.55359 112.73524 l -0.0213,18.81717 -0.0214,18.81716 h 239.86105 239.86105 z m -460.22705,12.84002 c -2.23595,-0.26759 -4.0043,-0.8391 -5.69839,-1.84163 -2.26457,-1.34014 -4.2664,-3.56987 -5.36318,-5.97376 -0.39492,-0.86559 -0.83122,-2.27928 -1.01156,-3.27764 -0.20749,-1.14869 -0.20746,-3.40024 6e-5,-4.56216 0.50814,-2.84511 1.81881,-5.29848 3.91461,-7.32755 1.95659,-1.89428 4.12052,-3.02751 6.80034,-3.56126 1.27755,-0.25445 3.72688,-0.254 5.00699,9.2e-4 5.46931,1.08916 9.60036,5.22798 10.67076,10.69083 0.26557,1.35531 0.26756,3.60089 0.004,4.94321 -0.53659,2.73693 -1.74959,5.04108 -3.66941,6.97021 -1.9744,1.98396 -4.49627,3.30862 -7.18327,3.77313 -0.78691,0.13603 -2.88312,0.23609 -3.47133,0.1657 z m 5.41867,-6.34185 v -1.48167 h -0.72387 c -0.49149,0 -0.8062,-0.0426 -0.98034,-0.13263 -0.4484,-0.23187 -0.49712,-0.49333 -0.49712,-2.66771 0,-1.53188 -0.0231,-1.95051 -0.10584,-1.91966 -0.0582,0.0217 -0.74647,0.26389 -1.52947,0.53822 l -1.42365,0.49878 0.0298,2.032 c 0.0344,2.34774 0.10646,2.65583 0.80244,3.42992 0.75255,0.83702 1.68633,1.13698 3.64492,1.17086 l 0.78317,0.0136 z m -3.97933,-6.09194 0.55033,-0.18902 0.0225,-2.38402 0.0225,-2.38402 h 2.28468 2.28468 v -1.43934 -1.43933 h -5.2763 c -5.80513,0 -5.76778,-0.003 -6.5982,0.5243 l -0.40216,0.25535 v 1.47206 1.47206 l 0.42865,-0.26375 c 0.77567,-0.47728 1.28383,-0.58135 2.83856,-0.58135 h 1.38945 v 2.912 2.912 l 0.9525,-0.33896 c 0.52388,-0.18643 1.20015,-0.42401 1.50284,-0.52798 z m 380.53435,8.55303 c -0.6914,-0.13656 -1.1067,-0.27988 -1.74169,-0.60105 -2.19259,-1.10901 -3.44537,-2.90573 -3.85588,-5.53007 -0.19225,-1.22892 -0.21234,-5.37852 -0.0269,-5.54814 0.14231,-0.13015 3.87624,-1.44825 3.93531,-1.38919 0.0221,0.0221 -0.0335,0.208 -0.12362,0.4131 -0.30699,0.69893 -0.38086,1.38329 -0.37839,3.50559 0.003,2.26932 0.0856,2.85769 0.53635,3.80204 0.17462,0.36589 0.39212,0.65498 0.66406,0.88267 0.87183,0.72994 1.70264,0.99903 2.84367,0.92104 1.63712,-0.11191 2.87559,-1.26724 3.20053,-2.98566 0.14649,-0.77473 0.1483,-4.61778 0.003,-5.32629 -0.24109,-1.17161 -0.93372,-2.15168 -1.82188,-2.57795 -0.32907,-0.15794 -0.47642,-0.26809 -0.39702,-0.29679 0.0694,-0.0251 1.00256,-0.35277 2.07359,-0.72816 l 1.94734,-0.68253 0.31548,0.36315 c 0.43553,0.50131 0.95499,1.5197 1.15941,2.27294 0.28372,1.04545 0.37915,2.13106 0.37915,4.31321 0,2.18214 -0.0954,3.26775 -0.37915,4.3132 -0.59144,2.17938 -2.51739,4.10968 -4.73688,4.7476 -0.81901,0.23539 -2.71789,0.30472 -3.59601,0.13129 z m 61.89134,-0.0509 c -1.17666,-0.24748 -2.05342,-0.72067 -2.88176,-1.55526 -0.69076,-0.69597 -1.10646,-1.35041 -1.36072,-2.14212 -0.2043,-0.63618 -0.24905,-2.31433 -0.0808,-3.03077 0.34282,-1.45995 1.3554,-2.77635 2.59373,-3.37197 1.15425,-0.55516 1.38665,-0.58553 4.79875,-0.62695 l 3.06916,-0.0373 v -1.24609 c 0,-1.17792 -0.0123,-1.27074 -0.22409,-1.69583 -0.24838,-0.49843 -0.67452,-0.82409 -1.41802,-1.08365 -0.34911,-0.12188 -0.70898,-0.15089 -1.87155,-0.15089 -1.8628,0 -2.21327,0.096 -2.9441,0.80676 -0.31535,0.30666 -0.55045,0.47416 -0.60593,0.43167 -0.40621,-0.31109 -2.56205,-1.99679 -2.62051,-2.04902 -0.041,-0.0366 0.22719,-0.36833 0.59596,-0.7371 1.45828,-1.45828 3.32549,-2.06675 5.94951,-1.93878 3.77118,0.18391 5.7547,1.41735 6.49164,4.0368 0.14313,0.50875 0.1569,1.07335 0.18222,7.47184 l 0.0274,6.92149 h -1.78126 -1.78127 v -0.81703 -0.81704 l -0.24821,0.34265 c -0.48078,0.66371 -1.31648,1.12551 -2.41825,1.33631 -0.90859,0.17384 -2.52398,0.15163 -3.47187,-0.0477 z m 4.33326,-3.43548 c 0.68438,-0.14252 1.07651,-0.36984 1.35767,-0.78706 0.31145,-0.46216 0.38198,-0.8262 0.42497,-2.19355 l 0.0408,-1.2966 -2.69734,0.0298 c -3.12282,0.0345 -3.33317,0.0733 -4.02171,0.74138 -0.55275,0.53635 -0.71069,1.19095 -0.47811,1.98153 0.15233,0.51776 0.91516,1.25237 1.50698,1.45123 0.89338,0.30019 2.61999,0.3329 3.86676,0.0733 z m -118.9296,3.35544 c -0.95986,-0.20757 -1.33276,-0.34998 -2.28575,-0.8729 -1.75995,-0.96572 -2.92101,-2.71076 -3.48809,-5.24253 -0.17558,-0.78393 -0.19504,-1.08372 -0.19396,-2.98802 10e-4,-2.34693 0.0841,-2.98658 0.56193,-4.34127 0.92672,-2.62749 2.44271,-4.11699 4.85554,-4.77069 0.85985,-0.23297 2.4807,-0.25637 3.41354,-0.0493 2.35563,0.52292 4.27405,2.19778 5.09549,4.44858 0.397,1.08782 0.50724,1.99631 0.50763,4.18352 v 1.92616 h -5.461 -5.461 l 10e-4,0.48684 c 0.003,1.49734 0.89446,2.91104 2.23295,3.54142 1.73597,0.81758 3.6985,0.47137 5.35626,-0.94491 l 0.44563,-0.38072 1.28084,1.12519 1.28083,1.12518 -0.68568,0.6526 c -1.14909,1.09362 -2.532,1.83087 -4.00276,2.13393 -0.89279,0.18396 -2.52229,0.16836 -3.45374,-0.0331 z m 4.88592,-11.32595 c -0.14521,-1.68291 -1.02724,-2.98202 -2.34592,-3.45524 -0.53403,-0.19164 -1.6526,-0.25313 -2.21095,-0.12155 -0.99627,0.23479 -1.80626,0.84876 -2.23441,1.69367 -0.27232,0.5374 -0.54997,1.5911 -0.54997,2.08717 v 0.36745 h 3.69527 3.69529 z m 9.43558,11.32205 c 0.12406,-0.0724 3.26125,-1.18321 3.34174,-1.18321 0.0177,0 0.0321,0.28575 0.0321,0.635 v 0.63499 l -1.75683,-0.003 c -1.16916,-0.002 -1.71005,-0.0299 -1.617,-0.0842 z m 9.94185,-1.53816 c -0.49317,-0.89372 -0.86779,-1.64977 -0.83251,-1.68011 0.0694,-0.0597 3.2434,-1.18363 3.34016,-1.18279 0.0593,5.1e-4 2.65445,4.11954 2.74626,4.35878 0.0436,0.11361 -0.21438,0.12906 -2.15386,0.12906 h -2.20339 z m 15.57493,1.53068 c -1.71168,-0.24932 -2.87996,-1.15725 -3.36492,-2.61507 -0.16536,-0.49709 -0.18631,-0.77253 -0.21652,-2.84716 l -0.0335,-2.29684 0.36681,-0.12844 c 0.20174,-0.0707 1.0219,-0.35833 1.82257,-0.63929 l 1.45577,-0.51083 0.0259,2.43206 c 0.0229,2.15359 0.043,2.45814 0.17524,2.65977 0.28395,0.43294 0.5277,0.52225 1.51789,0.55614 l 0.9151,0.0313 v 1.7263 1.7263 l -1.0795,-0.0103 c -0.59373,-0.006 -1.30692,-0.0435 -1.58489,-0.0839 z m 25.69372,-9.0074 v -9.10167 h 1.778 1.778 v 0.93134 c 0,0.51907 0.0349,0.93133 0.0789,0.93133 0.0434,0 0.15833,-0.11155 0.25542,-0.24788 0.26159,-0.36739 1.15069,-1.01041 1.82468,-1.31969 2.26873,-1.04106 4.83021,-0.55398 6.68518,1.27124 0.75878,0.7466 1.24845,1.68369 1.48903,2.84954 0.15285,0.7408 0.16331,1.20444 0.16435,7.28929 l 10e-4,6.49816 h -1.73567 -1.73566 v -5.4972 c 0,-3.39294 -0.0343,-5.75073 -0.0896,-6.1595 -0.22715,-1.67902 -1.2852,-2.82456 -2.84709,-3.0825 -1.56902,-0.25912 -3.23205,0.6267 -3.74365,1.99406 -0.32056,0.85679 -0.34569,1.37451 -0.34634,7.13598 l -6.5e-4,5.60916 h -1.778 -1.778 z m 19.21934,0 v -9.10167 h 1.778 1.778 v 9.10167 9.10166 h -1.778 -1.778 z m 8.29733,0 v -9.10167 h 1.778 1.778 v 4.23334 c 0,2.32833 0.0286,4.23242 0.0635,4.23132 0.0349,-0.001 1.56845,-1.90467 3.40783,-4.23013 l 3.34434,-4.22812 2.1466,-0.003 2.14661,-0.003 -0.27886,0.3175 c -1.39778,1.59147 -5.75002,6.72678 -5.75002,6.78458 0,0.0408 1.53895,2.54569 3.4199,5.56651 l 3.4199,5.49241 -2.20923,0.0226 c -2.03261,0.0208 -2.21633,0.0107 -2.29806,-0.12637 -0.0489,-0.0819 -1.08423,-1.95236 -2.30081,-4.15651 -1.21658,-2.20414 -2.24609,-4.04165 -2.28779,-4.08335 -0.0446,-0.0446 -0.64074,0.58594 -1.44986,1.53374 l -1.37405,1.60956 v 2.62133 2.62132 h -1.778 -1.778 z m -106.12967,8.93336 c -1.87487,-0.28714 -3.00818,-1.21177 -3.48549,-2.84371 -0.13123,-0.44871 -0.14992,-1.09883 -0.17704,-6.15903 l -0.0303,-5.65737 -1.83658,0.027 -1.83657,0.027 -0.66288,0.31652 c -0.36459,0.17408 -0.77416,0.39575 -0.91017,0.4926 l -0.24729,0.17608 v -1.73391 -1.7339 l 0.27517,-0.23252 c 0.34446,-0.29108 0.98593,-0.57816 1.5705,-0.70284 0.3101,-0.0661 2.34314,-0.0957 6.58283,-0.0957 h 6.13417 v 1.73566 1.73567 h -2.667 -2.667 v 5.23681 5.23681 l 0.19343,0.28769 c 0.25624,0.3811 0.60627,0.48879 1.60749,0.49458 l 0.82725,0.005 -0.0229,1.7145 -0.0229,1.7145 -1.10067,0.0118 c -0.60537,0.006 -1.29117,-0.0174 -1.524,-0.0531 z m 25.86567,-9.18737 v -9.18633 h 1.77723 1.77724 l 0.0219,4.37924 0.0219,4.37925 3.37337,-4.25225 3.37337,-4.25224 h 2.11916 c 2.00033,0 2.11265,0.008 2.00296,0.14705 -0.0639,0.0809 -1.24046,1.46201 -2.61455,3.06917 -1.3741,1.60716 -2.68091,3.13797 -2.90403,3.40181 l -0.40566,0.4797 2.03943,3.27767 c 1.12169,1.80271 2.02272,3.29437 2.0023,3.3148 -0.0335,0.0335 -2.80444,1.02592 -3.23947,1.16023 -0.16252,0.0502 -0.30819,-0.1786 -1.51601,-2.38096 -0.73491,-1.34006 -1.38393,-2.50663 -1.44225,-2.59237 -0.0958,-0.1408 -0.2379,-0.002 -1.46851,1.43779 l -1.36244,1.59367 v 2.00126 2.00127 l -1.72143,0.60378 c -0.94678,0.33209 -1.74688,0.60379 -1.778,0.60379 -0.0311,0 -0.0566,-4.13385 -0.0566,-9.18633 z m 22.098,-2.03222 v -3.44062 l -1.8415,0.0293 c -2.03867,0.0325 -2.23086,0.0735 -3.26647,0.6971 l -0.48344,0.29111 0.0229,-1.75169 0.0229,-1.75168 0.40322,-0.26947 c 0.22176,-0.14821 0.62181,-0.35776 0.889,-0.46567 l 0.48578,-0.19619 6.41526,-0.0237 6.41526,-0.0237 -0.0229,1.71705 -0.0229,1.71705 -2.68703,0.0224 -2.68703,0.0223 -0.0223,2.80172 -0.0223,2.80172 -1.60867,0.57206 c -0.88476,0.31464 -1.69439,0.59895 -1.79916,0.6318 l -0.1905,0.0597 z m 10.80284,-0.65595 c 0.27428,-1.6429 0.50827,-2.34698 1.06753,-3.21225 0.68603,-1.06142 1.38087,-1.73188 2.48063,-2.39359 1.91477,-1.15209 5.26667,-1.14483 7.22928,0.0157 0.6143,0.36324 1.74723,1.37148 1.64423,1.46326 -0.0375,0.0334 -0.95556,0.37265 -2.04014,0.75387 l -1.97197,0.69312 -0.67171,-0.0982 c -1.29584,-0.18948 -2.63993,0.28473 -3.37472,1.19063 l -0.37772,0.46567 -1.95429,0.69656 c -1.07486,0.38311 -1.98192,0.69744 -2.01568,0.6985 -0.0338,10e-4 -0.0407,-0.12189 -0.0154,-0.27323 z"
       id="path71" />
  </g>
</svg>
